<svg width="18" height="23" viewBox="0 0 18 23" fill="none" xmlns="http://www.w3.org/2000/svg">
<path d="M9.00389 10.5C8.45264 10.5 8.00391 10.9283 8.00391 11.4545C8.00391 11.8032 8.21058 12.0957 8.50392 12.2623V12.8863C8.50392 13.1501 8.72756 13.3636 9.00394 13.3636C9.28031 13.3636 9.50395 13.1501 9.50395 12.8863V12.2623C9.7973 12.0957 10.004 11.8031 10.004 11.4545C10.0039 10.9283 9.55514 10.5 9.00389 10.5Z" fill="#373B3E"/>
<path d="M8.99609 6.68213C8.16894 6.68213 7.49609 7.32438 7.49609 8.11393V8.59121H10.4961V8.11393C10.4961 7.32438 9.8232 6.68213 8.99609 6.68213Z" fill="#373B3E"/>
<path d="M17.6665 2.89088L9.1665 0.0272825C9.05906 -0.00909416 8.94094 -0.00909416 8.8335 0.0272825L0.333516 2.89088C0.133828 2.95844 0 3.13885 0 3.34114V9.06833C0 16.48 1.15139 19.1888 8.77491 22.8578C8.84569 22.8918 8.92284 22.9091 9 22.9091C9.07716 22.9091 9.15431 22.8919 9.22509 22.8578C16.8486 19.1888 18 16.48 18 9.06833V3.34114C18 3.13885 17.8662 2.95849 17.6665 2.89088ZM13.5 14.3183C13.5 14.8444 13.0513 15.2728 12.5 15.2728H5.49998C4.94873 15.2728 4.5 14.8444 4.5 14.3183V9.54562C4.5 9.01943 4.94873 8.5911 5.49998 8.5911V8.11382C5.49998 6.27185 7.0703 4.77294 9 4.77294C10.9297 4.77294 12.5 6.27185 12.5 8.11382V8.5911C13.0513 8.5911 13.5 9.01943 13.5 9.54562V14.3183Z" fill="#373B3E"/>
</svg>
