<svg width="80" height="39" viewBox="0 0 80 39" fill="none" xmlns="http://www.w3.org/2000/svg">
<path d="M1.02436 15.2479L0 13.2014L21.5806 2.53979L31.4231 7.39959L30.3988 9.44609L21.5806 5.09157L1.02436 15.2479Z" fill="#5090F0"/>
<path d="M28.1006 -5.85596e-05L27.0789 2.047L43.2986 10.0449L44.3203 7.9978L28.1006 -5.85596e-05Z" fill="#5090F0"/>
<path d="M8.16 33H1.42V19.66H7.98C9.16667 19.66 10.0933 19.9867 10.76 20.64C11.44 21.28 11.78 22.0867 11.78 23.06C11.78 23.86 11.5533 24.54 11.1 25.1C10.66 25.6467 10.1133 25.9867 9.46 26.12C10.18 26.2267 10.7867 26.6 11.28 27.24C11.7867 27.8667 12.04 28.5867 12.04 29.4C12.04 30.4667 11.6933 31.3333 11 32C10.32 32.6667 9.37333 33 8.16 33ZM7.5 25.18C8.08667 25.18 8.54667 25.02 8.88 24.7C9.21333 24.38 9.38 23.9667 9.38 23.46C9.38 22.94 9.21333 22.52 8.88 22.2C8.54667 21.88 8.08667 21.72 7.5 21.72H3.76V25.18H7.5ZM7.6 30.94C8.24 30.94 8.74 30.78 9.1 30.46C9.46 30.1267 9.64 29.6667 9.64 29.08C9.64 28.56 9.46 28.1267 9.1 27.78C8.74 27.42 8.24 27.24 7.6 27.24H3.76V30.94H7.6ZM24.7088 33H22.0088L19.0488 28.02H16.7288V33H14.3888V19.66H20.2488C21.5554 19.66 22.6088 20.0467 23.4088 20.82C24.2088 21.5933 24.6088 22.6 24.6088 23.84C24.6088 24.96 24.3021 25.86 23.6888 26.54C23.0754 27.2067 22.3288 27.6133 21.4488 27.76L24.7088 33ZM19.9288 25.96C20.5954 25.96 21.1421 25.7667 21.5688 25.38C21.9954 24.9933 22.2088 24.48 22.2088 23.84C22.2088 23.2 21.9954 22.6867 21.5688 22.3C21.1421 21.9133 20.5954 21.72 19.9288 21.72H16.7288V25.96H19.9288ZM38.0673 31.3C36.7873 32.5933 35.154 33.24 33.1673 33.24C31.1807 33.24 29.5473 32.5933 28.2673 31.3C26.9873 29.9933 26.3473 28.34 26.3473 26.34C26.3473 24.34 26.9873 22.6933 28.2673 21.4C29.5473 20.0933 31.1807 19.44 33.1673 19.44C35.154 19.44 36.7873 20.0933 38.0673 21.4C39.3473 22.6933 39.9873 24.34 39.9873 26.34C39.9873 28.34 39.3473 29.9933 38.0673 31.3ZM33.1673 31.16C34.4873 31.16 35.554 30.7067 36.3673 29.8C37.1807 28.88 37.5873 27.7267 37.5873 26.34C37.5873 24.94 37.1807 23.7867 36.3673 22.88C35.554 21.9733 34.4873 21.52 33.1673 21.52C31.834 21.52 30.7607 21.9733 29.9473 22.88C29.1473 23.7867 28.7473 24.94 28.7473 26.34C28.7473 27.74 29.1473 28.8933 29.9473 29.8C30.7607 30.7067 31.834 31.16 33.1673 31.16ZM48.6403 33.24C46.6403 33.24 44.9736 32.6 43.6403 31.32C42.307 30.0267 41.6403 28.3667 41.6403 26.34C41.6403 24.3133 42.307 22.66 43.6403 21.38C44.9736 20.0867 46.6403 19.44 48.6403 19.44C50.9603 19.44 52.747 20.44 54.0003 22.44L52.0003 23.46C51.667 22.8867 51.1936 22.42 50.5803 22.06C49.9803 21.7 49.3336 21.52 48.6403 21.52C47.3203 21.52 46.2203 21.9733 45.3403 22.88C44.4736 23.7867 44.0403 24.94 44.0403 26.34C44.0403 27.74 44.4736 28.8933 45.3403 29.8C46.2203 30.7067 47.3203 31.16 48.6403 31.16C49.347 31.16 50.0003 30.98 50.6003 30.62C51.2003 30.26 51.667 29.7933 52.0003 29.22L54.0003 30.24C52.7203 32.24 50.9336 33.24 48.6403 33.24ZM66.7331 33H63.8531L59.3731 27.38L58.2131 28.74V33H55.8731V19.66H58.2131V26.02L63.4331 19.66H66.3331L60.9131 25.96L66.7331 33ZM74.122 33H71.782V27.46L66.602 19.66H69.282L72.962 25.38L76.602 19.66H79.282L74.122 27.46V33Z" fill="#373B3E"/>
</svg>
