<svg width="23" height="23" viewBox="0 0 23 23" fill="none" xmlns="http://www.w3.org/2000/svg">
<mask id="path-1-inside-1" fill="white">
<path d="M19.6296 3.37062C15.1359 -1.12336 7.8629 -1.12372 3.36886 3.37062C-0.420614 7.16028 -0.982677 12.8701 1.52886 17.232L0.0311207 22.0828C-0.130014 22.6047 0.366822 23.093 0.886164 22.9214L5.59016 21.3675C9.91929 23.9652 15.7451 23.5171 19.6296 19.6324C24.1233 15.1384 24.1236 7.86493 19.6296 3.37062Z"/>
</mask>
<path d="M19.6296 3.37062L18.2153 4.78479L18.2154 4.7848L19.6296 3.37062ZM3.36886 3.37062L4.78311 4.7848L4.78313 4.78479L3.36886 3.37062ZM1.52886 17.232L3.43985 17.8221L3.69696 16.9893L3.26208 16.2341L1.52886 17.232ZM0.0311207 22.0828L-1.87986 21.4928L-1.87987 21.4928L0.0311207 22.0828ZM0.886164 22.9214L0.258837 21.0223L0.886164 22.9214ZM5.59016 21.3675L6.61921 19.6525L5.83321 19.1809L4.96284 19.4684L5.59016 21.3675ZM19.6296 19.6324L18.2154 18.2182L18.2153 18.2182L19.6296 19.6324ZM21.0439 1.95646C15.7692 -3.3186 7.22974 -3.31904 1.9546 1.95646L4.78313 4.78479C8.49606 1.0716 14.5027 1.07188 18.2153 4.78479L21.0439 1.95646ZM1.95462 1.95644C-2.49638 6.40765 -3.15137 13.1118 -0.20436 18.23L3.26208 16.2341C1.18602 12.6285 1.65515 7.91291 4.78311 4.7848L1.95462 1.95644ZM-0.38212 16.642L-1.87986 21.4928L1.9421 22.6729L3.43985 17.8221L-0.38212 16.642ZM-1.87987 21.4928C-2.51971 23.5652 -0.551306 25.5025 1.51349 24.8205L0.258837 21.0223C1.28495 20.6834 2.25969 21.6443 1.94211 22.6729L-1.87987 21.4928ZM1.51349 24.8205L6.21749 23.2666L4.96284 19.4684L0.258837 21.0223L1.51349 24.8205ZM4.56112 23.0825C9.63911 26.1295 16.4795 25.6112 21.0439 21.0465L18.2153 18.2182C15.0107 21.423 10.1995 21.8009 6.61921 19.6525L4.56112 23.0825ZM21.0439 21.0465C26.3185 15.7716 26.3189 7.23183 21.0439 1.95645L18.2154 4.7848C21.9284 8.49802 21.9281 14.5052 18.2154 18.2182L21.0439 21.0465Z" fill="#EF929C" mask="url(#path-1-inside-1)"/>
<rect x="10" y="10" width="3" height="3" rx="1" fill="#EF929C"/>
<rect x="15" y="10" width="3" height="3" rx="1" fill="#EF929C"/>
<rect x="5" y="10" width="3" height="3" rx="1" fill="#EF929C"/>
</svg>
