<svg width="20" height="24" viewBox="0 0 20 24" fill="none" xmlns="http://www.w3.org/2000/svg">
<path d="M5.07159 14.8673L3.00362 15.9505C1.77184 16.5957 1 17.8713 1 19.2619C1 21.3264 2.67363 23 4.73815 23H15.2619C17.3264 23 19 21.3264 19 19.2619C19 17.8713 18.2282 16.5957 16.9964 15.9505L14.9284 14.8673C13.8408 14.2976 12.6314 14 11.4037 14H8.59635C7.36861 14 6.15916 14.2976 5.07159 14.8673Z" stroke="#EF929C" stroke-width="2"/>
<path d="M14.7756 6C14.7756 8.73671 12.4903 11 9.6152 11C6.74014 11 4.45477 8.73671 4.45477 6C4.45477 3.26329 6.74014 1 9.6152 1C12.4903 1 14.7756 3.26329 14.7756 6Z" stroke="#EF929C" stroke-width="2"/>
</svg>
