<svg width="538" height="471" viewBox="0 0 538 471" fill="none" xmlns="http://www.w3.org/2000/svg">
<path opacity="0.58" d="M306.549 52.0587C306.293 53.2412 305.135 53.997 303.94 53.7532C302.758 53.4972 302.002 52.3391 302.246 51.1445C302.502 49.962 303.66 49.2062 304.854 49.45C306.049 49.706 306.805 50.8641 306.549 52.0587Z" fill="#3E479B"/>
<path opacity="0.89" d="M160.022 102.27C158.937 102.27 158.06 101.393 158.06 100.308V87.7395C158.06 86.6546 158.937 85.7769 160.022 85.7769C161.107 85.7769 161.985 86.6546 161.985 87.7395V100.308C161.985 101.393 161.107 102.27 160.022 102.27Z" fill="#4C65BA"/>
<path opacity="0.89" d="M375.996 155.676C374.911 155.676 374.034 154.798 374.034 153.713V124.651C374.034 123.567 374.911 122.689 375.996 122.689C377.081 122.689 377.959 123.567 377.959 124.651V153.713C377.959 154.798 377.081 155.676 375.996 155.676Z" fill="#B6B9D6"/>
<path opacity="0.89" d="M160.022 155.676C158.937 155.676 158.06 154.798 158.06 153.713V124.651C158.06 123.567 158.937 122.689 160.022 122.689C161.107 122.689 161.985 123.567 161.985 124.651V153.713C161.985 154.798 161.107 155.676 160.022 155.676Z" fill="#4C65BA"/>
<path opacity="0.89" d="M160.022 194.94C158.937 194.94 158.06 194.063 158.06 192.978V163.916C158.06 162.831 158.937 161.954 160.022 161.954C161.107 161.954 161.985 162.831 161.985 163.916V192.978C161.985 194.063 161.107 194.94 160.022 194.94Z" fill="#B6B9D6"/>
<path d="M348.898 471H186.72C171.75 471 159.621 458.871 159.621 443.901V54.7527C159.621 39.7831 171.75 27.6538 186.72 27.6538H348.898C363.868 27.6538 375.997 39.7831 375.997 54.7527V443.901C375.997 458.871 363.868 471 348.898 471Z" fill="#E5E7F4"/>
<path opacity="0.21" d="M344.143 467.404H191.485C177.405 467.404 165.983 455.494 165.983 440.805V58.7512C165.983 44.062 177.405 32.1522 191.485 32.1522H344.143C358.223 32.1522 369.645 44.062 369.645 58.7512V440.805C369.645 455.494 358.223 467.404 344.143 467.404Z" fill="#EDF5FF"/>
<path opacity="0.1" d="M344.143 459.175H191.485C177.405 459.175 165.983 447.802 165.983 433.771V68.8934C165.983 54.8625 177.405 43.489 191.485 43.489H344.143C358.223 43.489 369.645 54.8625 369.645 68.8934V433.771C369.645 447.802 358.223 459.175 344.143 459.175Z" fill="#DDE0E8"/>
<path d="M363.233 81.8517H172.395V419.557H363.233V81.8517Z" fill="white"/>
<path opacity="0.47" d="M354.871 91.0309H184.208V406.758H354.871V91.0309Z" fill="#ECF1F7"/>
<path d="M267.808 458.822C275.396 458.822 281.546 452.671 281.546 445.084C281.546 437.496 275.396 431.345 267.808 431.345C260.221 431.345 254.07 437.496 254.07 445.084C254.07 452.671 260.221 458.822 267.808 458.822Z" fill="#B6B9D6"/>
<g opacity="0.89">
<path opacity="0.89" d="M237.381 57.1055C237.381 59.0559 235.797 60.6406 233.846 60.6406C231.896 60.6406 230.311 59.0559 230.311 57.1055C230.311 55.155 231.896 53.5703 233.846 53.5703C235.797 53.5825 237.381 55.155 237.381 57.1055Z" fill="#B6B9D6"/>
</g>
<g opacity="0.89">
<path opacity="0.89" d="M270.173 45.7198C270.173 47.0242 269.113 48.0726 267.82 48.0726C266.516 48.0726 265.468 47.012 265.468 45.7198C265.468 44.4155 266.528 43.3671 267.82 43.3671C269.113 43.3671 270.173 44.4277 270.173 45.7198Z" fill="#B6B9D6"/>
</g>
<g opacity="0.89">
<path opacity="0.89" d="M285.874 59.0803H249.742C248.877 59.0803 248.17 58.3733 248.17 57.5078C248.17 56.6422 248.877 55.9352 249.742 55.9352H285.874C286.74 55.9352 287.447 56.6422 287.447 57.5078C287.447 58.3733 286.74 59.0803 285.874 59.0803Z" fill="#B6B9D6"/>
</g>
<path d="M340.474 190.953H104.813C101.156 190.953 98.1813 187.991 98.1813 184.322V112.375C98.1813 108.718 101.144 105.743 104.813 105.743H340.474C344.131 105.743 347.106 108.706 347.106 112.375V184.322C347.106 187.979 344.131 190.953 340.474 190.953Z" fill="#5090F0"/>
<g opacity="0.87">
<path opacity="0.87" d="M226.483 140.316L227.556 142.486C227.678 142.742 227.922 142.912 228.202 142.961L230.604 143.315C231.311 143.412 231.591 144.278 231.079 144.777L229.348 146.472C229.141 146.667 229.056 146.947 229.104 147.228L229.519 149.617C229.641 150.324 228.897 150.848 228.275 150.519L226.13 149.385C225.874 149.251 225.581 149.251 225.325 149.385L223.18 150.519C222.546 150.848 221.815 150.312 221.936 149.617L222.351 147.228C222.4 146.947 222.302 146.667 222.107 146.472L220.376 144.777C219.864 144.278 220.144 143.412 220.851 143.315L223.253 142.961C223.533 142.925 223.777 142.742 223.899 142.486L224.972 140.316C225.252 139.682 226.166 139.682 226.483 140.316Z" fill="white"/>
<path opacity="0.87" d="M239.954 140.316L241.026 142.486C241.148 142.742 241.392 142.912 241.672 142.961L244.074 143.315C244.781 143.412 245.061 144.278 244.549 144.777L242.818 146.472C242.611 146.667 242.526 146.947 242.575 147.228L242.989 149.617C243.111 150.324 242.367 150.848 241.746 150.519L239.6 149.385C239.344 149.251 239.052 149.251 238.796 149.385L236.65 150.519C236.016 150.848 235.285 150.312 235.407 149.617L235.821 147.228C235.87 146.947 235.772 146.667 235.577 146.472L233.846 144.777C233.334 144.278 233.615 143.412 234.322 143.315L236.723 142.961C237.004 142.925 237.247 142.742 237.369 142.486L238.442 140.316C238.722 139.682 239.637 139.682 239.954 140.316Z" fill="white"/>
<path opacity="0.87" d="M253.411 140.316L254.484 142.486C254.606 142.742 254.85 142.912 255.13 142.961L257.532 143.315C258.239 143.412 258.519 144.278 258.007 144.777L256.276 146.472C256.069 146.667 255.983 146.947 256.032 147.228L256.447 149.617C256.569 150.324 255.825 150.848 255.203 150.519L253.058 149.385C252.802 149.251 252.509 149.251 252.253 149.385L250.108 150.519C249.474 150.848 248.742 150.312 248.864 149.617L249.279 147.228C249.328 146.947 249.23 146.667 249.035 146.472L247.304 144.777C246.792 144.278 247.072 143.412 247.779 143.315L250.181 142.961C250.461 142.925 250.705 142.742 250.827 142.486L251.9 140.316C252.192 139.682 253.106 139.682 253.411 140.316Z" fill="white"/>
<path opacity="0.87" d="M266.882 140.316L267.954 142.486C268.076 142.742 268.32 142.912 268.6 142.961L271.002 143.315C271.709 143.412 271.989 144.278 271.477 144.777L269.746 146.472C269.539 146.667 269.454 146.947 269.502 147.228L269.917 149.617C270.039 150.324 269.295 150.848 268.674 150.519L266.528 149.385C266.272 149.251 265.98 149.251 265.724 149.385L263.578 150.519C262.944 150.848 262.213 150.312 262.335 149.617L262.749 147.228C262.798 146.947 262.7 146.667 262.505 146.472L260.774 144.777C260.262 144.278 260.543 143.412 261.25 143.315L263.651 142.961C263.932 142.925 264.175 142.742 264.297 142.486L265.37 140.316C265.663 139.682 266.565 139.682 266.882 140.316Z" fill="white"/>
<path opacity="0.36" d="M280.352 140.316L281.424 142.486C281.546 142.742 281.79 142.912 282.071 142.961L284.472 143.315C285.179 143.412 285.459 144.278 284.947 144.777L283.216 146.472C283.009 146.667 282.924 146.947 282.973 147.228L283.387 149.617C283.509 150.324 282.765 150.848 282.144 150.519L279.998 149.385C279.742 149.251 279.45 149.251 279.194 149.385L277.048 150.519C276.414 150.848 275.683 150.312 275.805 149.617L276.219 147.228C276.268 146.947 276.17 146.667 275.975 146.472L274.244 144.777C273.732 144.278 274.013 143.412 274.72 143.315L277.121 142.961C277.402 142.925 277.645 142.742 277.767 142.486L278.84 140.316C279.12 139.682 280.035 139.682 280.352 140.316Z" fill="#4C65BA"/>
</g>
<path opacity="0.84" d="M316.923 114.729H219.986V121.909H316.923V114.729Z" fill="white"/>
<path opacity="0.36" d="M268.454 125.493H219.986V130.881H268.454V125.493Z" fill="#4C65BA"/>
<path opacity="0.36" d="M316.923 159.601H219.986V161.393H316.923V159.601Z" fill="#4C65BA"/>
<path opacity="0.36" d="M316.923 166.781H219.986V168.573H316.923V166.781Z" fill="#4C65BA"/>
<path opacity="0.36" d="M316.923 173.961H219.986V175.753H316.923V173.961Z" fill="#4C65BA"/>
<path opacity="0.36" d="M316.923 181.141H219.986V182.933H316.923V181.141Z" fill="#4C65BA"/>
<path d="M148.344 182.933C171.06 182.933 189.474 164.518 189.474 141.803C189.474 119.088 171.06 100.673 148.344 100.673C125.629 100.673 107.214 119.088 107.214 141.803C107.214 164.518 125.629 182.933 148.344 182.933Z" fill="white"/>
<mask id="mask0" mask-type="alpha" maskUnits="userSpaceOnUse" x="107" y="102" width="83" height="84">
<path d="M148.445 185.002C171.16 185.002 189.575 166.588 189.575 143.872C189.575 121.157 171.16 102.743 148.445 102.743C125.73 102.743 107.315 121.157 107.315 143.872C107.315 166.588 125.73 185.002 148.445 185.002Z" fill="white"/>
</mask>
<g mask="url(#mask0)">
<path d="M133.118 184.554H163.557C177.869 184.554 189.474 172.949 189.474 158.638C189.474 148.105 180.94 139.572 170.408 139.572H126.292C115.759 139.572 107.226 148.105 107.226 158.638C107.214 172.949 118.807 184.554 133.118 184.554Z" fill="#EF929C"/>
</g>
<path d="M141.261 79.3038C148.673 79.0966 150.684 77.329 153.537 76.0612C156.389 74.8056 156.353 68.0645 164.008 69.5273C171.676 70.9779 167.946 78.7675 167.946 78.7675C171.152 75.9881 178.112 72.1604 183.208 77.8166C188.303 83.4729 179.575 90.7383 179.575 90.7383C179.575 90.7383 180.746 92.6034 180.014 98.5156C179.283 104.428 175.333 105.123 175.333 105.123L137.617 108.548C135.447 108.743 133.411 107.451 132.679 105.403L132.655 105.354L130.79 99.6006C127.633 87.0324 133.862 79.5111 141.261 79.3038Z" fill="#373B3E"/>
<path d="M136.556 101.941L136.434 98.9301C136.434 98.857 136.434 98.796 136.434 98.7351C136.471 98.7351 136.495 98.7351 136.532 98.7351C136.715 98.7351 136.897 98.6985 137.068 98.6741C138.19 101.551 151.769 102.148 151.769 92.774C151.769 92.6887 168.568 92.7375 173.066 91.4697C173.139 91.4697 173.212 91.4697 173.285 91.4697C174.821 92.9569 175.833 95.0049 175.918 97.2966L176.808 118.959C177.247 129.698 178.99 137.573 158.498 137.195L158.23 143.693C159.023 151.116 154.549 157.675 148.344 158.175C142.566 158.65 137.324 153.664 136.373 146.765L135.983 114.911C133.118 114.302 130.9 111.827 130.754 108.78C130.595 105.342 133.167 102.356 136.556 101.941Z" fill="#F9DCD2"/>
<path d="M168.19 104.781C168.616 105.001 169.177 104.928 169.713 104.903C170.262 104.855 170.798 104.83 171.274 104.83C171.749 104.83 172.298 104.842 172.846 104.879C173.383 104.903 173.943 104.964 174.37 104.733C174.772 104.525 174.943 103.916 174.455 103.197C174.004 102.49 172.81 101.722 171.237 101.722C169.665 101.734 168.494 102.526 168.055 103.245C167.592 103.977 167.775 104.574 168.19 104.781Z" fill="#373B3E"/>
<path d="M153.001 105.343C153.415 105.599 153.964 105.574 154.512 105.599C155.061 105.599 155.609 105.623 156.073 105.66C156.548 105.696 157.097 105.757 157.633 105.842C158.169 105.916 158.718 106.013 159.157 105.83C159.583 105.66 159.803 105.074 159.376 104.306C158.986 103.563 157.865 102.685 156.292 102.563C154.72 102.441 153.488 103.124 152.988 103.807C152.476 104.502 152.598 105.111 153.001 105.343Z" fill="#373B3E"/>
<path d="M162.192 117.459L164.752 117.252C167.251 117.045 169.116 114.851 168.909 112.352C168.811 111.206 167.8 110.34 166.654 110.438C165.191 110.56 163.911 109.475 163.789 108.012L163.496 104.513C163.472 104.257 163.24 104.062 162.984 104.074C162.728 104.099 162.533 104.33 162.546 104.586L162.838 108.085C162.997 110.06 164.74 111.535 166.715 111.376C167.349 111.328 167.897 111.791 167.946 112.425C168.104 114.399 166.629 116.143 164.654 116.301L162.095 116.508C161.839 116.533 161.644 116.764 161.656 117.02C161.704 117.289 161.936 117.484 162.192 117.459Z" fill="#EF929C"/>
<path d="M171.981 111.827C172.529 111.803 172.956 111.352 172.932 110.803L172.859 108.816C172.834 108.268 172.383 107.841 171.835 107.865C171.286 107.89 170.859 108.341 170.884 108.889L170.957 110.876C170.969 111.413 171.432 111.852 171.981 111.827Z" fill="#373B3E"/>
<path d="M157.109 112.364C157.657 112.339 158.084 111.888 158.059 111.34L157.999 109.353C157.974 108.804 157.523 108.377 156.975 108.402C156.426 108.426 155.999 108.877 156.024 109.426L156.097 111.413C156.097 111.949 156.56 112.376 157.109 112.364Z" fill="#373B3E"/>
<path d="M178.832 130.686C178.856 129.662 178.564 128.711 178.052 127.918C177.357 126.846 177.101 125.529 177.064 124.249L177.052 123.713H176.93C176.991 122.762 176.857 121.896 176.162 121.36C174.382 120.007 170.689 118.264 163.46 118.788C151.062 119.69 148.624 128.321 145.394 123.189C142.968 119.336 141.639 107.353 141.115 101.6C140.945 99.6371 139.75 97.9061 137.982 97.0162L135.52 95.785C135.52 95.785 135.24 93.1885 136.568 115.582C137.604 132.88 142.505 141.766 155.036 143.034C157.45 143.278 159.778 143.912 162.034 144.777C162.533 144.973 163.07 145.082 163.631 145.094C164.143 145.107 164.63 145.046 165.093 144.912C166.361 144.546 167.678 144.521 168.933 144.936C170.177 145.338 171.579 145.424 173.029 145.094C175.54 144.509 177.613 142.547 178.332 140.06C178.783 138.487 178.722 136.939 178.271 135.574C177.942 134.574 177.991 133.477 178.417 132.514C178.661 131.966 178.807 131.344 178.832 130.686Z" fill="#373B3E"/>
<path d="M163.338 128.747H168.007V123.152H158.23V123.627C158.218 126.456 160.51 128.747 163.338 128.747Z" fill="white"/>
<path d="M439.032 292.852H203.37C199.713 292.852 196.739 289.89 196.739 286.221V214.274C196.739 210.617 199.701 207.642 203.37 207.642H439.032C442.689 207.642 445.663 210.605 445.663 214.274V286.221C445.663 289.89 442.701 292.852 439.032 292.852Z" fill="#5090F0"/>
<g opacity="0.87">
<path opacity="0.87" d="M228.275 240.849L229.348 243.018C229.47 243.274 229.714 243.445 229.994 243.494L232.396 243.847C233.103 243.945 233.383 244.81 232.871 245.31L231.14 247.005C230.933 247.2 230.847 247.48 230.896 247.76L231.311 250.15C231.433 250.857 230.689 251.381 230.067 251.052L227.922 249.918C227.666 249.784 227.373 249.784 227.117 249.918L224.972 251.052C224.338 251.381 223.606 250.845 223.728 250.15L224.143 247.76C224.192 247.48 224.094 247.2 223.899 247.005L222.168 245.31C221.656 244.81 221.936 243.945 222.643 243.847L225.045 243.494C225.325 243.457 225.569 243.274 225.691 243.018L226.764 240.849C227.056 240.215 227.958 240.215 228.275 240.849Z" fill="white"/>
<path opacity="0.87" d="M241.745 240.849L242.818 243.018C242.94 243.274 243.184 243.445 243.464 243.494L245.866 243.847C246.573 243.945 246.853 244.81 246.341 245.31L244.61 247.005C244.403 247.2 244.318 247.48 244.366 247.76L244.781 250.15C244.903 250.857 244.159 251.381 243.537 251.052L241.392 249.918C241.136 249.784 240.843 249.784 240.587 249.918L238.442 251.052C237.808 251.381 237.077 250.845 237.199 250.15L237.613 247.76C237.662 247.48 237.564 247.2 237.369 247.005L235.638 245.31C235.126 244.81 235.407 243.945 236.114 243.847L238.515 243.494C238.795 243.457 239.039 243.274 239.161 243.018L240.234 240.849C240.514 240.215 241.429 240.215 241.745 240.849Z" fill="white"/>
<path opacity="0.87" d="M255.216 240.849L256.288 243.018C256.41 243.274 256.654 243.445 256.934 243.494L259.336 243.847C260.043 243.945 260.323 244.81 259.811 245.31L258.08 247.005C257.873 247.2 257.788 247.48 257.836 247.76L258.251 250.15C258.373 250.857 257.629 251.381 257.008 251.052L254.862 249.918C254.606 249.784 254.313 249.784 254.057 249.918L251.912 251.052C251.278 251.381 250.547 250.845 250.669 250.15L251.083 247.76C251.132 247.48 251.034 247.2 250.839 247.005L249.108 245.31C248.596 244.81 248.877 243.945 249.584 243.847L251.985 243.494C252.266 243.457 252.509 243.274 252.631 243.018L253.704 240.849C253.984 240.215 254.899 240.215 255.216 240.849Z" fill="white"/>
<path opacity="0.87" d="M268.674 240.849L269.746 243.018C269.868 243.274 270.112 243.445 270.393 243.494L272.794 243.847C273.501 243.945 273.781 244.81 273.269 245.31L271.538 247.005C271.331 247.2 271.246 247.48 271.295 247.76L271.709 250.15C271.831 250.857 271.087 251.381 270.466 251.052L268.32 249.918C268.064 249.784 267.772 249.784 267.516 249.918L265.37 251.052C264.736 251.381 264.005 250.845 264.127 250.15L264.541 247.76C264.59 247.48 264.492 247.2 264.297 247.005L262.566 245.31C262.054 244.81 262.335 243.945 263.042 243.847L265.443 243.494C265.724 243.457 265.967 243.274 266.089 243.018L267.162 240.849C267.455 240.215 268.369 240.215 268.674 240.849Z" fill="white"/>
<path opacity="0.36" d="M282.144 240.849L283.217 243.018C283.338 243.274 283.582 243.445 283.863 243.494L286.264 243.847C286.971 243.945 287.251 244.81 286.74 245.31L285.009 247.005C284.801 247.2 284.716 247.48 284.765 247.76L285.179 250.15C285.301 250.857 284.557 251.381 283.936 251.052L281.79 249.918C281.534 249.784 281.242 249.784 280.986 249.918L278.84 251.052C278.206 251.381 277.475 250.845 277.597 250.15L278.011 247.76C278.06 247.48 277.963 247.2 277.768 247.005L276.036 245.31C275.524 244.81 275.805 243.945 276.512 243.847L278.913 243.494C279.194 243.457 279.438 243.274 279.559 243.018L280.632 240.849C280.925 240.215 281.827 240.215 282.144 240.849Z" fill="#4C65BA"/>
<path opacity="0.87" d="M281.376 249.821C281.242 249.821 281.095 249.857 280.974 249.918L278.828 251.052C278.194 251.381 277.463 250.845 277.585 250.15L277.999 247.76C278.048 247.48 277.95 247.2 277.755 247.005L276.024 245.31C275.512 244.81 275.793 243.945 276.5 243.847L278.901 243.494C279.182 243.457 279.425 243.274 279.547 243.018L280.62 240.849C280.778 240.532 281.083 240.373 281.388 240.373C281.425 240.373 281.388 249.821 281.376 249.821Z" fill="white"/>
</g>
<path opacity="0.84" d="M318.714 215.249H221.778V222.429H318.714V215.249Z" fill="white"/>
<path opacity="0.36" d="M270.246 226.025H221.778V231.413H270.246V226.025Z" fill="#4C65BA"/>
<path opacity="0.36" d="M318.714 260.121H221.778V261.913H318.714V260.121Z" fill="#4C65BA"/>
<path opacity="0.36" d="M318.714 267.314H221.778V269.106H318.714V267.314Z" fill="#4C65BA"/>
<path opacity="0.36" d="M318.714 274.494H221.778V276.286H318.714V274.494Z" fill="#4C65BA"/>
<path opacity="0.36" d="M318.714 281.674H221.778V283.466H318.714V281.674Z" fill="#4C65BA"/>
<path d="M425.141 273.216C441.203 257.154 441.203 231.112 425.141 215.05C409.079 198.988 383.037 198.988 366.975 215.05C350.913 231.112 350.913 257.154 366.975 273.216C383.037 289.278 409.079 289.278 425.141 273.216Z" fill="white"/>
<mask id="mask1" mask-type="alpha" maskUnits="userSpaceOnUse" x="337" y="185" width="118" height="118">
<path d="M425.141 273.109C441.203 257.047 441.203 231.005 425.141 214.943C409.079 198.881 383.037 198.881 366.975 214.943C350.913 231.005 350.913 257.047 366.975 273.109C383.037 289.171 409.079 289.171 425.141 273.109Z" fill="white"/>
</mask>
<g mask="url(#mask1)">
<path d="M413.225 286.867H382.189C369.938 286.867 360.015 276.932 360.015 264.693C360.015 256.22 366.878 249.357 375.35 249.357H420.076C428.548 249.357 435.411 256.22 435.411 264.693C435.399 276.944 425.476 286.867 413.225 286.867Z" fill="#EF929C"/>
</g>
<path d="M417.004 231.669C430.974 209.69 411.945 182.104 391.6 182.104C385.687 182.104 379.86 183.835 375.143 186.919C374.314 186.785 373.473 186.651 372.583 186.529C369.828 186.151 367.548 187.248 365.793 188.699C362.843 191.137 362.124 195.294 363.867 198.695C364.306 199.548 364.757 200.28 365.196 200.682C364.635 203.193 364.513 205.887 364.94 208.776C367.244 224.148 380.677 239.971 398.024 239.995C397.292 245.066 399.852 250.284 404.741 252.783C410.872 255.916 418.321 253.575 421.393 247.553C424.245 241.934 422.27 235.095 417.004 231.669Z" fill="#373B3E"/>
<path d="M409.922 213.969H408.788L408.727 222.003C399.792 221.332 399.901 206.509 400.157 201.876C392.234 205.814 381.665 208.813 370.937 204.046C370.791 204.936 370.694 205.838 370.694 206.753V228.805C370.694 238.045 378.191 245.542 387.431 245.542H387.565L387.723 257.025C387.784 261.755 391.429 265.546 395.842 265.485C400.267 265.424 403.802 261.535 403.741 256.806L403.522 240.58C406.521 237.557 408.386 233.388 408.386 228.793V225.964H409.922C412.408 225.964 414.432 223.27 414.432 219.955C414.432 216.663 412.421 213.969 409.922 213.969Z" fill="#F9DCD2"/>
<path opacity="0.32" d="M392.697 245.517L403.631 249.626L403.509 240.654C400.706 243.457 396.902 245.249 392.697 245.517Z" fill="#EF929C"/>
<path d="M412.64 225.318C412.64 226.696 411.689 227.817 410.519 227.817C409.349 227.817 408.398 226.696 408.398 225.318C408.398 223.941 409.349 222.819 410.519 222.819C411.701 222.819 412.64 223.941 412.64 225.318Z" fill="#EF929C"/>
<path opacity="0.32" d="M376.155 227.586H372.827C371.778 227.586 370.925 226.635 370.925 225.465C370.925 224.294 371.778 223.343 372.827 223.343H376.155C377.203 223.343 378.056 224.294 378.056 225.465C378.068 226.635 377.215 227.586 376.155 227.586Z" fill="#EF929C"/>
<path opacity="0.32" d="M396.159 227.586H392.831C391.783 227.586 390.929 226.635 390.929 225.465C390.929 224.294 391.783 223.343 392.831 223.343H396.159C397.207 223.343 398.061 224.294 398.061 225.465C398.061 226.635 397.207 227.586 396.159 227.586Z" fill="#EF929C"/>
<path d="M382.786 226.147H386.516C386.833 226.147 387.077 225.891 387.077 225.586C387.077 225.269 386.821 225.026 386.516 225.026H382.786L382.262 224.502L382.701 224.855C383.737 223.587 384.298 221.978 384.298 220.345V216.785C384.298 216.468 384.042 216.224 383.737 216.224C383.42 216.224 383.176 216.48 383.176 216.785V220.345C383.176 221.722 382.701 223.075 381.835 224.148C381.531 224.526 381.47 225.026 381.677 225.452C381.884 225.879 382.311 226.147 382.786 226.147Z" fill="#EF929C"/>
<path d="M376.033 221.1C375.423 221.1 374.924 220.649 374.924 220.089V218.053C374.924 217.492 375.423 217.041 376.033 217.041C376.642 217.041 377.142 217.492 377.142 218.053V220.089C377.13 220.649 376.642 221.1 376.033 221.1Z" fill="#373B3E"/>
<path d="M378.105 213.104C377.752 213.384 377.228 213.457 376.716 213.567C376.204 213.664 375.692 213.786 375.253 213.896C374.814 214.006 374.314 214.164 373.815 214.323C373.315 214.469 372.815 214.652 372.376 214.579C371.962 214.518 371.681 214.091 371.986 213.421C372.266 212.762 373.217 211.885 374.68 211.495C376.143 211.117 377.374 211.434 377.923 211.885C378.496 212.336 378.447 212.848 378.105 213.104Z" fill="#373B3E"/>
<path d="M392.575 221.1C391.965 221.1 391.466 220.649 391.466 220.089V218.053C391.466 217.492 391.965 217.041 392.575 217.041C393.184 217.041 393.684 217.492 393.684 218.053V220.089C393.684 220.649 393.184 221.1 392.575 221.1Z" fill="#373B3E"/>
<path d="M396.586 214.688C396.147 214.737 395.647 214.53 395.159 214.359C394.672 214.176 394.172 214.006 393.745 213.872C393.306 213.738 392.807 213.603 392.295 213.482C391.795 213.347 391.271 213.238 390.929 212.957C390.6 212.689 390.588 212.189 391.198 211.763C391.783 211.348 393.05 211.092 394.489 211.531C395.927 211.97 396.817 212.896 397.061 213.555C397.317 214.25 397.012 214.652 396.586 214.688Z" fill="#373B3E"/>
<path d="M387.272 234.656H382.603V229.061H392.38V229.536C392.392 232.364 390.1 234.656 387.272 234.656Z" fill="white"/>
<path d="M337.134 394.762H101.473C97.8155 394.762 94.8411 391.8 94.8411 388.131V316.184C94.8411 312.527 97.8033 309.553 101.473 309.553H337.134C340.791 309.553 343.765 312.515 343.765 316.184V388.131C343.753 391.788 340.791 394.762 337.134 394.762Z" fill="#5090F0"/>
<g opacity="0.87">
<path opacity="0.87" d="M228.275 343.173L229.348 345.343C229.47 345.599 229.714 345.77 229.994 345.819L232.396 346.172C233.103 346.27 233.383 347.135 232.871 347.635L231.14 349.33C230.933 349.525 230.847 349.805 230.896 350.085L231.311 352.475C231.433 353.182 230.689 353.706 230.067 353.377L227.922 352.243C227.666 352.109 227.373 352.109 227.117 352.243L224.972 353.377C224.338 353.706 223.607 353.169 223.728 352.475L224.143 350.085C224.192 349.805 224.094 349.525 223.899 349.33L222.168 347.635C221.656 347.135 221.936 346.27 222.643 346.172L225.045 345.819C225.325 345.782 225.569 345.599 225.691 345.343L226.764 343.173C227.056 342.527 227.958 342.527 228.275 343.173Z" fill="white"/>
<path opacity="0.87" d="M241.746 343.173L242.818 345.343C242.94 345.599 243.184 345.77 243.464 345.819L245.866 346.172C246.573 346.27 246.853 347.135 246.341 347.635L244.61 349.33C244.403 349.525 244.318 349.805 244.367 350.085L244.781 352.475C244.903 353.182 244.159 353.706 243.538 353.377L241.392 352.243C241.136 352.109 240.844 352.109 240.588 352.243L238.442 353.377C237.808 353.706 237.077 353.169 237.199 352.475L237.613 350.085C237.662 349.805 237.564 349.525 237.369 349.33L235.638 347.635C235.126 347.135 235.407 346.27 236.114 346.172L238.515 345.819C238.796 345.782 239.039 345.599 239.161 345.343L240.234 343.173C240.514 342.527 241.429 342.527 241.746 343.173Z" fill="white"/>
<path opacity="0.87" d="M255.216 343.173L256.288 345.343C256.41 345.599 256.654 345.77 256.935 345.819L259.336 346.172C260.043 346.27 260.323 347.135 259.811 347.635L258.08 349.33C257.873 349.525 257.788 349.805 257.837 350.085L258.251 352.475C258.373 353.182 257.629 353.706 257.008 353.377L254.862 352.243C254.606 352.109 254.314 352.109 254.058 352.243L251.912 353.377C251.278 353.706 250.547 353.169 250.669 352.475L251.083 350.085C251.132 349.805 251.034 349.525 250.839 349.33L249.108 347.635C248.596 347.135 248.877 346.27 249.584 346.172L251.985 345.819C252.266 345.782 252.509 345.599 252.631 345.343L253.704 343.173C253.985 342.527 254.899 342.527 255.216 343.173Z" fill="white"/>
<path opacity="0.87" d="M268.674 343.173L269.747 345.343C269.868 345.599 270.112 345.77 270.393 345.819L272.794 346.172C273.501 346.27 273.782 347.135 273.27 347.635L271.539 349.33C271.331 349.525 271.246 349.805 271.295 350.085L271.709 352.475C271.831 353.182 271.087 353.706 270.466 353.377L268.32 352.243C268.064 352.109 267.772 352.109 267.516 352.243L265.37 353.377C264.736 353.706 264.005 353.169 264.127 352.475L264.541 350.085C264.59 349.805 264.493 349.525 264.298 349.33L262.567 347.635C262.055 347.135 262.335 346.27 263.042 346.172L265.443 345.819C265.724 345.782 265.968 345.599 266.09 345.343L267.162 343.173C267.455 342.527 268.369 342.527 268.674 343.173Z" fill="white"/>
<path opacity="0.87" d="M282.144 343.173L283.217 345.343C283.338 345.599 283.582 345.77 283.863 345.819L286.264 346.172C286.971 346.27 287.251 347.135 286.74 347.635L285.009 349.33C284.801 349.525 284.716 349.805 284.765 350.085L285.179 352.475C285.301 353.182 284.557 353.706 283.936 353.377L281.79 352.243C281.534 352.109 281.242 352.109 280.986 352.243L278.84 353.377C278.206 353.706 277.475 353.169 277.597 352.475L278.011 350.085C278.06 349.805 277.963 349.525 277.768 349.33L276.036 347.635C275.524 347.135 275.805 346.27 276.512 346.172L278.913 345.819C279.194 345.782 279.438 345.599 279.559 345.343L280.632 343.173C280.925 342.527 281.827 342.527 282.144 343.173Z" fill="white"/>
</g>
<path opacity="0.84" d="M318.715 317.574H221.778V324.754H318.715V317.574Z" fill="white"/>
<path opacity="0.36" d="M270.246 328.338H221.778V333.726H270.246V328.338Z" fill="#4C65BA"/>
<path opacity="0.36" d="M318.715 362.446H221.778V364.238H318.715V362.446Z" fill="#4C65BA"/>
<path opacity="0.36" d="M318.715 369.626H221.778V371.418H318.715V369.626Z" fill="#4C65BA"/>
<path opacity="0.36" d="M318.715 376.806H221.778V378.598H318.715V376.806Z" fill="#4C65BA"/>
<path opacity="0.36" d="M318.715 383.986H221.778V385.778H318.715V383.986Z" fill="#4C65BA"/>
<path d="M189.445 342.863C189.445 320.149 171.032 301.735 148.318 301.735C125.603 301.735 107.19 320.149 107.19 342.863C107.19 365.577 125.603 383.991 148.318 383.991C171.032 383.991 189.445 365.577 189.445 342.863Z" fill="white"/>
<mask id="mask2" mask-type="alpha" maskUnits="userSpaceOnUse" x="107" y="302" width="83" height="83">
<path d="M189.445 343.584C189.445 320.869 171.032 302.456 148.318 302.456C125.603 302.456 107.19 320.869 107.19 343.584C107.19 366.298 125.603 384.711 148.318 384.711C171.032 384.711 189.445 366.298 189.445 343.584Z" fill="white"/>
</mask>
<g mask="url(#mask2)">
<path d="M133.118 385.607H163.557C177.869 385.607 189.474 374.002 189.474 359.691C189.474 349.159 180.941 340.626 170.408 340.626H126.292C115.759 340.626 107.226 349.159 107.226 359.691C107.214 374.002 118.807 385.607 133.118 385.607Z" fill="#EF929C"/>
</g>
<path d="M120.026 288.5L120.758 288.159C126.17 285.684 130.12 283.027 133.265 278.736C134.508 277.054 135.337 275.371 137.483 274.165C150.941 266.607 159.462 274.494 159.718 274.384C165.618 271.69 178.442 282.685 176.369 291.974C175.772 294.668 178.113 297.387 179.673 299.91C180.124 300.629 180.612 301.446 181.099 302.336C183.379 305.774 184.488 309.748 183.964 313.831C183.196 319.841 179.124 324.754 173.358 327.558C166.312 330.995 159.401 334.665 153.305 339.151C148.21 342.893 140.993 344.661 133.411 343.344C122.476 341.442 114.15 333.311 113.736 324.205C113.626 321.755 114.077 319.476 114.967 317.379C115.443 316.257 115.199 315.002 114.346 313.978C114.114 313.697 113.882 313.405 113.675 313.112L112.298 311.186C107.495 304.567 110.03 293.059 120.026 288.5Z" fill="#373B3E"/>
<path d="M148.832 295.375C147.064 301.056 143.249 310.296 137.019 310.808V305.396H134.752C132.265 305.396 130.242 308.431 130.242 312.161C130.242 315.904 132.265 318.927 134.752 318.927H137.263V320.634C137.263 325.083 139.067 329.118 141.969 332.056L141.749 348.196C141.688 352.548 145.236 356.119 149.649 356.18C154.074 356.241 157.706 352.767 157.767 348.415L157.926 336.834C166.703 336.627 173.761 329.471 173.761 320.634V299.898C161.376 300.654 153.635 298.289 148.832 295.375Z" fill="#F9DCD2"/>
<path opacity="0.32" d="M142.005 332.105L141.883 340.796L152.476 336.822C148.393 336.566 144.711 334.823 142.005 332.105Z" fill="#EF929C"/>
<path d="M157.938 318.634L159.876 318.659C161.766 318.683 163.326 317.159 163.35 315.27C163.363 314.404 162.655 313.685 161.79 313.673C160.693 313.661 159.803 312.759 159.815 311.649L159.852 308.992C159.852 308.797 159.693 308.638 159.498 308.626C159.303 308.626 159.145 308.785 159.132 308.98L159.096 311.637C159.084 313.137 160.278 314.368 161.778 314.38C162.253 314.38 162.631 314.782 162.631 315.258C162.619 316.757 161.376 317.964 159.888 317.94L157.95 317.915C157.755 317.915 157.597 318.074 157.584 318.269C157.584 318.476 157.743 318.634 157.938 318.634Z" fill="#EF929C"/>
<path d="M168.617 315.087C169.202 315.087 169.689 314.612 169.689 314.014V311.881C169.689 311.296 169.214 310.808 168.617 310.808C168.031 310.808 167.544 311.284 167.544 311.881V314.014C167.556 314.612 168.031 315.087 168.617 315.087Z" fill="#373B3E"/>
<path d="M165.557 307.639C165.996 307.797 166.52 307.749 167.032 307.736C167.544 307.712 168.056 307.688 168.507 307.688C168.958 307.688 169.482 307.7 170.006 307.724C170.518 307.736 171.067 307.785 171.432 307.627C171.786 307.468 171.859 307.029 171.286 306.493C170.75 305.969 169.494 305.408 167.995 305.408C166.495 305.42 165.508 305.993 165.203 306.517C164.874 307.042 165.13 307.48 165.557 307.639Z" fill="#373B3E"/>
<path d="M152.586 315.087C153.171 315.087 153.659 314.612 153.659 314.014V311.881C153.659 311.296 153.184 310.808 152.586 310.808C152.001 310.808 151.514 311.284 151.514 311.881V314.014C151.514 314.612 152.001 315.087 152.586 315.087Z" fill="#373B3E"/>
<path d="M149.331 307.627C149.709 307.785 150.246 307.736 150.77 307.712C151.294 307.675 151.83 307.663 152.281 307.663C152.745 307.663 153.257 307.675 153.769 307.7C154.281 307.712 154.805 307.761 155.256 307.59C155.683 307.432 155.939 307.005 155.597 306.469C155.28 305.957 154.268 305.396 152.757 305.396C151.245 305.408 150.002 305.981 149.466 306.493C148.893 307.054 148.966 307.48 149.331 307.627Z" fill="#373B3E"/>
<path d="M155.926 326.302H161.668V320.89H150.855V321.231C150.855 324.035 153.123 326.302 155.926 326.302Z" fill="white"/>
<path d="M139.787 76.2197C139.323 76.2197 138.872 76.0491 138.519 75.6955L116.845 54.0213H92.33C91.3426 54.0213 90.5381 53.2168 90.5381 52.2294C90.5381 51.242 91.3426 50.4374 92.33 50.4374H118.332L141.054 73.16C141.761 73.867 141.761 75.0007 141.054 75.6955C140.701 76.0491 140.25 76.2197 139.787 76.2197Z" fill="#599AF2"/>
<path d="M84.0162 81.5834H36.3525C31.196 81.5834 27.0026 77.39 27.0026 72.2335V33.7612C27.0026 28.6047 31.196 24.4113 36.3525 24.4113H84.0162C89.1727 24.4113 93.3661 28.6047 93.3661 33.7612V72.2335C93.3661 77.39 89.1727 81.5834 84.0162 81.5834ZM36.3525 28.0074C33.183 28.0074 30.5987 30.5917 30.5987 33.7612V72.2335C30.5987 75.4029 33.183 77.9873 36.3525 77.9873H84.0162C87.1857 77.9873 89.77 75.4029 89.77 72.2335V33.7612C89.77 30.5917 87.1857 28.0074 84.0162 28.0074H36.3525Z" fill="#599AF2"/>
<path d="M80.0787 44.0741H38.7539C37.7665 44.0741 36.9619 43.2695 36.9619 42.2821C36.9619 41.2947 37.7665 40.4902 38.7539 40.4902H80.0787C81.0661 40.4902 81.8707 41.2947 81.8707 42.2821C81.8829 43.2695 81.0783 44.0741 80.0787 44.0741Z" fill="#599AF2"/>
<path d="M80.8469 55.5573H39.5221C38.5347 55.5573 37.7301 54.7527 37.7301 53.7653C37.7301 52.7779 38.5347 51.9733 39.5221 51.9733H80.8469C81.8343 51.9733 82.6389 52.7779 82.6389 53.7653C82.6511 54.7527 81.8465 55.5573 80.8469 55.5573Z" fill="#599AF2"/>
<path d="M80.8469 67.8084H39.5221C38.5347 67.8084 37.7301 67.0039 37.7301 66.0165C37.7301 65.0291 38.5347 64.2245 39.5221 64.2245H80.8469C81.8343 64.2245 82.6389 65.0291 82.6389 66.0165C82.6511 67.0039 81.8465 67.8084 80.8469 67.8084Z" fill="#599AF2"/>
<path d="M29.5049 38.6796C38.3686 35.0449 42.6075 24.9128 38.9727 16.0491C35.3379 7.18545 25.2059 2.94656 16.3422 6.58133C7.47854 10.2161 3.23965 20.3481 6.87442 29.2118C10.5092 38.0755 20.6412 42.3144 29.5049 38.6796Z" fill="white"/>
<path d="M22.9309 41.7824C12.3741 41.7824 3.79224 33.2005 3.79224 22.6437C3.79224 12.087 12.3863 3.5051 22.9309 3.5051C33.4876 3.5051 42.0695 12.0992 42.0695 22.6437C42.0817 33.1883 33.4876 41.7824 22.9309 41.7824ZM22.9309 7.08902C14.349 7.08902 7.37616 14.0618 7.37616 22.6437C7.37616 31.2257 14.349 38.1985 22.9309 38.1985C31.5128 38.1985 38.4856 31.2257 38.4856 22.6437C38.4856 14.0618 31.5128 7.08902 22.9309 7.08902Z" fill="#599AF2"/>
<path d="M28.9653 16.5607C28.9653 19.8887 26.2591 22.5949 22.9311 22.5949C19.6032 22.5949 16.897 19.8887 16.897 16.5607C16.897 13.2328 19.6032 10.5266 22.9311 10.5266C26.2712 10.5266 28.9653 13.2206 28.9653 16.5607Z" fill="#599AF2"/>
<path d="M33.1221 28.6291C33.1221 31.9571 28.5629 34.6633 22.9432 34.6633C17.3236 34.6633 12.7644 31.9571 12.7644 28.6291C12.7644 25.3012 17.3236 22.595 22.9432 22.595C28.5629 22.595 33.1221 25.289 33.1221 28.6291Z" fill="#599AF2"/>
<path d="M438.093 375.916H407.727L381.177 349.366C380.47 348.659 380.47 347.525 381.177 346.83C381.884 346.123 383.018 346.123 383.713 346.83L409.215 372.332H438.093C439.081 372.332 439.885 373.137 439.885 374.124C439.885 375.112 439.093 375.916 438.093 375.916Z" fill="#599AF2"/>
<path d="M505.042 406.428H446.541C441.385 406.428 437.191 402.235 437.191 397.079V349.354C437.191 344.197 441.385 340.004 446.541 340.004H505.042C510.198 340.004 514.392 344.197 514.392 349.354V397.079C514.392 402.235 510.198 406.428 505.042 406.428ZM446.541 343.6C443.372 343.6 440.787 346.184 440.787 349.354V397.079C440.787 400.248 443.372 402.832 446.541 402.832H505.042C508.211 402.832 510.796 400.248 510.796 397.079V349.354C510.796 346.184 508.211 343.6 505.042 343.6H446.541Z" fill="#599AF2"/>
<path d="M500.922 387.582H452.453C451.466 387.582 450.661 386.778 450.661 385.79C450.661 384.803 451.466 383.998 452.453 383.998H500.922C501.909 383.998 502.714 384.803 502.714 385.79C502.714 386.778 501.921 387.582 500.922 387.582Z" fill="#599AF2"/>
<path d="M500.032 374.112H451.564C450.576 374.112 449.772 373.308 449.772 372.32C449.772 371.333 450.576 370.528 451.564 370.528H500.032C501.019 370.528 501.824 371.333 501.824 372.32C501.824 373.32 501.019 374.112 500.032 374.112Z" fill="#599AF2"/>
<path d="M500.032 359.752H451.564C450.576 359.752 449.772 358.947 449.772 357.96C449.772 356.973 450.576 356.168 451.564 356.168H500.032C501.019 356.168 501.824 356.973 501.824 357.96C501.824 358.947 501.019 359.752 500.032 359.752Z" fill="#599AF2"/>
<path d="M515.588 352.573C526.824 352.573 535.933 343.464 535.933 332.227C535.933 320.991 526.824 311.882 515.588 311.882C504.351 311.882 495.242 320.991 495.242 332.227C495.242 343.464 504.351 352.573 515.588 352.573Z" fill="#ECF1F7"/>
<path d="M515.587 354.376C503.384 354.376 493.449 344.441 493.449 332.239C493.449 320.036 503.384 310.101 515.587 310.101C527.789 310.101 537.724 320.036 537.724 332.239C537.724 344.441 527.789 354.376 515.587 354.376ZM515.587 313.685C505.359 313.685 497.033 322.011 497.033 332.239C497.033 342.466 505.359 350.792 515.587 350.792C525.814 350.792 534.14 342.466 534.14 332.239C534.128 321.999 525.814 313.685 515.587 313.685Z" fill="#599AF2"/>
<path d="M522.657 325.107C522.657 329.02 519.487 332.178 515.587 332.178C511.686 332.178 508.516 329.008 508.516 325.107C508.516 321.206 511.686 318.037 515.587 318.037C519.487 318.037 522.657 321.194 522.657 325.107Z" fill="#599AF2"/>
<path d="M515.587 346.331C522.184 346.331 527.533 343.165 527.533 339.26C527.533 335.355 522.184 332.19 515.587 332.19C508.989 332.19 503.64 335.355 503.64 339.26C503.64 343.165 508.989 346.331 515.587 346.331Z" fill="#599AF2"/>
</svg>
